<?xml version="1.0" encoding="UTF-8" standalone="no"?>
<!DOCTYPE svg PUBLIC "-//W3C//DTD SVG 1.1//EN" "http://www.w3.org/Graphics/SVG/1.1/DTD/svg11.dtd">
<svg width="100%" height="100%" viewBox="0 0 1280 800" version="1.1" xmlns="http://www.w3.org/2000/svg" xmlns:xlink="http://www.w3.org/1999/xlink" xml:space="preserve" xmlns:serif="http://www.serif.com/" style="fill-rule:evenodd;clip-rule:evenodd;stroke-linejoin:round;stroke-miterlimit:2;">
    <g transform="matrix(1.04578,0.126547,-0.0955403,0.789542,76.3198,-309.677)">
        <path d="M531.275,599.689C571.922,603.892 603.663,638.287 603.663,680.037C603.663,724.62 567.468,760.816 522.884,760.816C478.301,760.816 309.281,736.547 309.281,691.964C309.281,666.406 364.825,639.685 420.63,621.533C430.134,649.089 450.227,668.107 473.456,668.107C502.427,668.107 526.521,638.523 531.275,599.689Z" style="fill:rgb(247,181,114);"/>
    </g>
    <g transform="matrix(0.865015,0.334097,-0.369501,0.956679,311.425,-297.945)">
        <path d="M430.495,475.116C490.104,490.041 476.418,453.575 476.418,494.921C476.418,536.266 457.384,569.833 433.939,569.833C410.494,569.833 391.46,536.266 391.46,494.921C391.46,453.575 407.752,469.422 430.495,475.116Z" style="fill:rgb(255,129,0);"/>
    </g>
    <g transform="matrix(-0.503608,-0.270017,-0.47253,0.881315,800.714,1.59177)">
        <rect x="411.551" y="465.932" width="4.018" height="31.572" style="fill:white;"/>
        <path d="M415.57,462.932L411.551,462.932C408.652,462.932 406.301,464.275 406.301,465.932L406.301,497.504C406.301,499.161 408.652,500.504 411.551,500.504L415.57,500.504C418.469,500.504 420.82,499.161 420.82,497.504L420.82,465.932C420.82,464.275 418.469,462.932 415.57,462.932Z" style="fill:rgb(247,181,114);"/>
    </g>
    <g transform="matrix(-0.560781,0.109796,0.192143,0.981367,716.845,-161.857)">
        <rect x="411.551" y="465.932" width="4.018" height="31.572" style="fill:white;"/>
        <path d="M415.57,462.932L411.551,462.932C408.652,462.932 406.301,464.275 406.301,465.932L406.301,497.504C406.301,499.161 408.652,500.504 411.551,500.504L415.57,500.504C418.469,500.504 420.82,499.161 420.82,497.504L420.82,465.932C420.82,464.275 418.469,462.932 415.57,462.932Z" style="fill:rgb(247,181,114);"/>
    </g>
    <g transform="matrix(2.34652,0.283946,-0.283946,2.34652,-706.232,-1771.59)">
        <circle cx="651.931" cy="839.489" r="7.893" style="fill:rgb(68,56,56);"/>
    </g>
    <g transform="matrix(2.34652,0.283946,-0.283946,2.34652,-938.125,-1823.99)">
        <circle cx="651.931" cy="839.489" r="7.893" style="fill:rgb(68,56,56);"/>
    </g>
    <g transform="matrix(0.972498,0.117679,-0.100813,0.833119,102.705,-302.857)">
        <path d="M345.668,576.573L345.668,643.704C345.668,646.813 343.506,649.337 340.842,649.337L331.19,649.337C328.527,649.337 326.364,646.813 326.364,643.704L326.364,576.573C326.364,573.464 328.527,570.94 331.19,570.94L340.842,570.94C343.506,570.94 345.668,573.464 345.668,576.573Z" style="fill:rgb(247,181,114);"/>
        <path d="M348.731,576.573L348.731,643.704C348.731,648.786 345.196,652.912 340.842,652.912L331.19,652.912C326.837,652.912 323.302,648.786 323.302,643.704L323.302,576.573C323.302,571.491 326.837,567.365 331.19,567.365L340.842,567.365C345.196,567.365 348.731,571.491 348.731,576.573ZM342.606,576.573C342.606,575.437 341.816,574.514 340.842,574.514L331.19,574.514C330.217,574.514 329.427,575.437 329.427,576.573L329.427,643.704C329.427,644.84 330.217,645.763 331.19,645.763L340.842,645.763C341.816,645.763 342.606,644.84 342.606,643.704L342.606,576.573Z" style="fill:rgb(247,181,114);"/>
    </g>
    <g transform="matrix(0.992758,0.120131,-0.120131,0.992758,164.575,-410.469)">
        <path d="M282.635,631.412L282.635,633.382C282.635,633.926 282.194,634.367 281.65,634.367L254.467,634.367C253.923,634.367 253.482,633.926 253.482,633.382L253.482,631.412C253.482,630.869 253.923,630.427 254.467,630.427L281.65,630.427C282.194,630.427 282.635,630.869 282.635,631.412Z" style="fill:white;"/>
        <path d="M285.635,631.412L285.635,633.382C285.635,635.581 283.849,637.367 281.65,637.367L254.467,637.367C252.267,637.367 250.482,635.581 250.482,633.382L250.482,631.412C250.482,629.213 252.267,627.427 254.467,627.427L281.65,627.427C283.849,627.427 285.635,629.213 285.635,631.412Z" style="fill:rgb(247,181,114);"/>
    </g>
    <g transform="matrix(0.532758,0.0644675,-0.0644675,0.532758,355.208,-182.999)">
        <circle cx="651.931" cy="839.489" r="7.893" style="fill:rgb(68,56,56);"/>
    </g>
    <g transform="matrix(1.13041,0.136787,-0.158711,1.31158,338.302,-350.938)">
        <g id="propeller">
            <path d="M338.183,421.72L338.183,507.815C338.183,508.517 337.521,509.088 336.706,509.088L333.751,509.088C332.936,509.088 332.274,508.517 332.274,507.815L332.274,421.72C332.274,421.018 332.936,420.447 333.751,420.447L336.706,420.447C337.521,420.447 338.183,421.018 338.183,421.72Z" style="fill:rgb(225,48,48);"/>
        </g>
    </g>
</svg>
