<?xml version="1.0" encoding="UTF-8" standalone="no"?>
<!DOCTYPE svg PUBLIC "-//W3C//DTD SVG 1.1//EN" "http://www.w3.org/Graphics/SVG/1.1/DTD/svg11.dtd">
<svg width="100%" height="100%" viewBox="0 0 1920 1080" version="1.1" xmlns="http://www.w3.org/2000/svg" xmlns:xlink="http://www.w3.org/1999/xlink" xml:space="preserve" xmlns:serif="http://www.serif.com/" style="fill-rule:evenodd;clip-rule:evenodd;stroke-linejoin:round;stroke-miterlimit:2;">
    <path d="M1250.87,550.328L1250.87,954.895L1213.22,954.895C1201.6,954.895 1190.45,950.277 1182.23,942.058C1174.01,933.838 1169.39,922.691 1169.39,911.067L1169.39,594.156C1169.39,582.532 1174.01,571.384 1182.23,563.165C1190.45,554.945 1201.6,550.328 1213.22,550.328L1250.87,550.328Z" style="fill:rgb(220,9,9);"/>
    <g transform="matrix(-0.977398,0.00730256,-0.00143707,-0.192342,1643.28,543.505)">
        <path d="M1086.72,374.294C1093.08,384.578 1097.02,416.909 1096,450.455C1094.98,484.001 1089.29,508.747 1082.61,508.747C984.608,508.747 826.552,508.747 728.548,508.747C721.867,508.747 716.184,484.001 715.16,450.455C714.136,416.909 718.077,384.578 724.444,374.294C750.885,331.584 773.393,295.225 773.393,295.225L1037.77,295.225C1037.77,295.225 1060.28,331.584 1086.72,374.294Z" style="fill:rgb(220,9,9);"/>
        <path d="M1087.65,359.43C1095.45,372.043 1100.29,411.7 1099.03,452.846C1097.78,493.992 1090.81,524.344 1082.61,524.344L728.548,524.344C720.354,524.344 713.383,493.992 712.127,452.846C710.871,411.7 715.705,372.043 723.514,359.43L772.463,280.362C772.764,279.876 773.078,279.629 773.393,279.629L1037.77,279.629C1038.08,279.629 1038.4,279.876 1038.7,280.362L1087.65,359.43ZM1085.79,389.158L1037.29,310.822L773.869,310.822L725.374,389.158C720.449,397.112 717.401,422.119 718.193,448.065C718.985,474.011 723.381,493.15 728.548,493.15L1082.61,493.15C1087.78,493.15 1092.17,474.011 1092.97,448.065C1093.76,422.119 1090.71,397.112 1085.79,389.158Z" style="fill:white;"/>
    </g>
    <g transform="matrix(-0.999951,-0.00988534,0.00988534,-0.999951,1694.72,1503.48)">
        <path d="M938.969,746.481C942.152,747.846 943.936,751.26 943.239,754.652C942.542,758.043 939.557,760.478 936.094,760.478C890.46,760.478 811.692,760.478 766.057,760.478C762.594,760.478 759.609,758.043 758.912,754.652C758.216,751.26 760,747.846 763.182,746.481C775.113,741.364 786.517,736.472 789.843,735.046C790.482,734.772 791.171,734.63 791.866,734.63C803.709,734.63 911.339,734.63 911.339,734.63C911.339,734.63 924.782,740.396 938.969,746.481Z" style="fill:rgb(255,129,0);"/>
        <path d="M940.152,743.724C944.643,745.65 947.161,750.468 946.178,755.255C945.194,760.042 940.981,763.478 936.094,763.478L766.057,763.478C761.17,763.478 756.957,760.042 755.974,755.255C754.991,750.468 757.508,745.65 761.999,743.724L788.661,732.289C789.673,731.854 790.764,731.63 791.866,731.63L911.339,731.63C911.746,731.63 912.148,731.713 912.522,731.873L940.152,743.724ZM937.787,749.238L910.723,737.63L791.866,737.63C791.577,737.63 791.291,737.689 791.026,737.803L764.364,749.238C762.491,750.042 761.441,752.051 761.851,754.048C762.261,756.045 764.019,757.478 766.057,757.478L936.095,757.478C938.133,757.478 939.89,756.045 940.3,754.048C940.71,752.051 939.66,750.042 937.787,749.238Z" style="fill:rgb(255,129,0);"/>
    </g>
    <g transform="matrix(1.08818,0,0,0.388889,-147.43,589.162)">
        <path d="M1023.65,859.183C1024.53,859.183 1025.38,860.163 1026,861.908C1026.63,863.653 1026.98,866.019 1026.98,868.487C1026.98,868.488 1026.98,868.49 1026.98,868.491C1026.98,870.958 1026.63,873.325 1026,875.07C1025.38,876.814 1024.53,877.794 1023.65,877.794C1004.01,877.794 903.376,877.794 883.738,877.794C882.856,877.794 882.01,876.814 881.387,875.07C880.763,873.325 880.413,870.958 880.413,868.491C880.413,868.49 880.413,868.488 880.413,868.487C880.413,866.019 880.763,863.653 881.387,861.908C882.01,860.163 882.856,859.183 883.738,859.183C903.376,859.183 1004.01,859.183 1023.65,859.183Z" style="fill:rgb(255,129,0);"/>
        <path d="M1023.65,851.469C1025.27,851.469 1026.81,853.262 1027.95,856.453C1029.09,859.645 1029.73,863.973 1029.73,868.487L1029.73,868.491C1029.73,873.004 1029.09,877.333 1027.95,880.524C1026.81,883.716 1025.27,885.509 1023.65,885.509L883.738,885.509C882.125,885.509 880.578,883.716 879.438,880.524C878.297,877.333 877.656,873.004 877.656,868.491L877.656,868.487C877.656,863.973 878.297,859.645 879.438,856.453C880.578,853.262 882.125,851.469 883.738,851.469L1023.65,851.469ZM1023.65,866.898L883.738,866.898C883.587,866.898 883.443,867.065 883.336,867.363C883.23,867.661 883.17,868.065 883.17,868.487L883.17,868.491C883.17,868.912 883.23,869.317 883.336,869.615C883.443,869.913 883.587,870.08 883.738,870.08L1023.65,870.08C1023.8,870.08 1023.95,869.913 1024.05,869.615C1024.16,869.317 1024.22,868.912 1024.22,868.491L1024.22,868.487C1024.22,868.065 1024.16,867.661 1024.05,867.363C1023.95,867.065 1023.8,866.898 1023.65,866.898Z" style="fill:rgb(255,129,0);"/>
    </g>
    <g transform="matrix(0.690196,0,0,0.690196,253.891,275.161)">
        <circle cx="924.263" cy="945.764" r="35.821" style="fill:rgb(238,187,187);"/>
        <path d="M924.263,905.596C946.432,905.596 964.431,923.595 964.431,945.764C964.431,967.933 946.432,985.932 924.263,985.932C902.094,985.932 884.095,967.933 884.095,945.764C884.095,923.595 902.094,905.596 924.263,905.596ZM924.263,914.289C906.892,914.289 892.789,928.393 892.789,945.764C892.789,963.135 906.892,977.238 924.263,977.238C941.634,977.238 955.737,963.135 955.737,945.764C955.737,928.393 941.634,914.289 924.263,914.289Z" style="fill:rgb(255,19,0);"/>
    </g>
    <g transform="matrix(0.408656,0,0,0.384669,468.176,604.976)">
        <circle cx="1037.77" cy="840.127" r="15.031"/>
        <path d="M1037.77,817.297C1050.23,817.297 1060.14,827.66 1060.14,840.127C1060.14,852.594 1050.23,862.957 1037.77,862.957C1025.3,862.957 1015.39,852.594 1015.39,840.127C1015.39,827.66 1025.3,817.297 1037.77,817.297ZM1037.77,832.895C1033.64,832.895 1030.08,836 1030.08,840.127C1030.08,844.254 1033.64,847.359 1037.77,847.359C1041.89,847.359 1045.46,844.254 1045.46,840.127C1045.46,836 1041.89,832.895 1037.77,832.895Z"/>
    </g>
</svg>
