<?xml version="1.0" encoding="UTF-8" standalone="no"?>
<!DOCTYPE svg PUBLIC "-//W3C//DTD SVG 1.1//EN" "http://www.w3.org/Graphics/SVG/1.1/DTD/svg11.dtd">
<svg width="100%" height="100%" viewBox="0 0 1280 800" version="1.1" xmlns="http://www.w3.org/2000/svg" xmlns:xlink="http://www.w3.org/1999/xlink" xml:space="preserve" xmlns:serif="http://www.serif.com/" style="fill-rule:evenodd;clip-rule:evenodd;stroke-linejoin:round;stroke-miterlimit:2;">
    <g transform="matrix(1,0,0,1,164.881,80.2712)">
        <g id="level5">
            <path d="M297.217,167.354L297.217,101.973L553.413,101.973L553.413,187.842C549.356,188.796 545.539,189.081 543.193,187.516C542.772,187.236 542.602,186.718 542.515,186.094C542.355,184.942 542.524,183.448 542.592,182.015C542.641,180.992 542.64,179.999 542.467,179.162C542.291,178.313 541.935,177.616 541.327,177.157C540.916,176.847 540.387,176.641 539.701,176.586C538.233,176.469 536.479,177.194 534.611,178.294C531.975,179.845 529.075,182.127 526.386,183.457C524.718,184.281 523.144,184.75 521.782,184.325C520.906,184.053 520.136,183.399 519.485,182.26C517.547,178.869 517.109,173.7 516.495,168.69C515.859,163.495 515.023,158.471 512.367,155.593C511.507,154.66 510.32,154.425 508.879,154.735C506.968,155.147 504.565,156.56 501.951,158.331C498.144,160.912 493.865,164.252 489.996,166.157C487.542,167.365 485.269,168.009 483.412,167.39C482.133,166.964 481.603,165.924 480.99,165.089C480.474,164.385 479.91,163.801 479.037,163.583C478.013,163.327 476.645,163.384 475.113,163.588C472.927,163.879 470.391,164.46 468.086,164.72C466.85,164.86 465.684,164.909 464.683,164.758C463.769,164.62 462.999,164.32 462.474,163.734C460.385,161.401 460.243,158.486 460.418,155.476C460.604,152.278 461.148,148.97 460.417,146.048C460.345,145.757 460.134,145.534 459.728,145.464C459.308,145.391 458.501,145.539 457.422,145.899C451.911,147.735 438.302,154.873 433.797,155.624C429.825,156.286 426.795,156.78 424.437,156.837C422.212,156.892 420.614,156.565 419.406,155.554C417.746,154.165 416.828,151.555 415.948,147.156C415.849,146.66 415.519,146.403 415.036,146.328C414.38,146.226 413.292,146.602 412.624,146.769C409.786,147.479 407.731,149.697 405.804,152.12C403.987,154.404 402.284,156.869 400.016,158.214C398.212,159.284 396.751,159.52 395.513,159.172C394.27,158.822 393.27,157.898 392.385,156.738C391.122,155.085 390.103,152.953 389.053,151.125C388.412,150.009 387.757,149.003 387.04,148.264C386.251,147.451 385.379,146.953 384.384,146.913C383.547,146.879 382.607,147.17 381.54,147.932C377.027,151.155 374.733,156.814 372.248,162.287C369.853,167.564 367.28,172.671 362.1,175.002C359.86,176.009 358,176.222 356.394,175.882C353.964,175.367 352.129,173.608 350.44,171.564C348.966,169.78 347.608,167.774 346.114,166.101C344.551,164.351 342.834,162.965 340.719,162.495C327.164,159.483 311.145,163.486 297.217,167.354Z" style="fill:rgb(255,221,131);"/>
        </g>
    </g>
    <g transform="matrix(1,0,0,1,165.966,78.6441)">
        <g id="level4">
            <path d="M297.217,268.945L297.217,168.386C311.061,164.523 327.01,160.473 340.502,163.471C342.417,163.897 343.952,165.182 345.368,166.768C346.854,168.431 348.203,170.427 349.669,172.202C351.509,174.428 353.54,176.3 356.187,176.86C357.966,177.237 360.03,177.03 362.51,175.914C367.914,173.483 370.66,168.205 373.159,162.7C375.569,157.392 377.745,151.872 382.121,148.746C383.156,148.007 384.019,147.784 384.787,147.976C385.572,148.173 386.236,148.781 386.865,149.59C387.793,150.784 388.623,152.413 389.512,154.026C390.321,155.491 391.18,156.943 392.188,158.072C393.259,159.271 394.502,160.11 396.013,160.287C397.291,160.436 398.775,160.113 400.526,159.074C402.892,157.671 404.692,155.124 406.587,152.742C408.372,150.499 410.238,148.397 412.867,147.739C413.366,147.615 414.129,147.328 414.697,147.308C414.773,147.305 414.845,147.307 414.908,147.321C414.933,147.326 414.962,147.325 414.967,147.352C415.911,152.07 416.984,154.831 418.764,156.321C419.872,157.248 421.256,157.707 423.073,157.817C425.637,157.971 429.11,157.419 433.962,156.611C438.494,155.855 452.193,148.695 457.738,146.847C458.361,146.64 458.873,146.501 459.248,146.456C459.329,146.446 459.42,146.446 459.485,146.447C460.134,149.237 459.596,152.379 459.42,155.417C459.229,158.699 459.452,161.858 461.729,164.401C462.272,165.007 463.006,165.398 463.884,165.618C465.095,165.921 466.593,165.896 468.198,165.714C470.51,165.453 473.053,164.871 475.245,164.58C476.631,164.395 477.868,164.321 478.794,164.553C479.614,164.758 480.024,165.449 480.511,166.14C481.126,167.014 481.817,167.912 483.096,168.339C485.162,169.027 487.707,168.398 490.437,167.054C494.344,165.13 498.668,161.765 502.512,159.159C504.999,157.474 507.272,156.105 509.089,155.713C510.134,155.488 511.009,155.595 511.633,156.271C514.17,159.022 514.894,163.846 515.502,168.812C516.133,173.963 516.624,179.269 518.617,182.757C519.422,184.165 520.401,184.943 521.484,185.28C523.061,185.771 524.898,185.308 526.829,184.353C529.538,183.014 532.462,180.719 535.118,179.156C536.778,178.179 538.317,177.479 539.621,177.583C540.085,177.62 540.447,177.746 540.725,177.955C541.148,178.274 541.365,178.775 541.487,179.365C541.646,180.128 541.638,181.035 541.593,181.967C541.522,183.465 541.357,185.027 541.525,186.232C541.657,187.18 541.999,187.922 542.638,188.348C545.121,190.004 549.129,189.847 553.413,188.868L553.413,269.683C551.975,267.914 550.434,266.287 548.616,265.076C544.833,262.553 540.039,261.676 535.141,260.98C530.368,260.302 525.496,259.794 521.423,257.984C520.264,257.469 519.289,256.547 518.307,255.634C517.242,254.643 516.172,253.661 514.915,253.102C509.66,250.767 504.675,252.384 499.812,254.283C495.176,256.094 490.662,258.178 486.103,256.875C482.793,255.929 480.211,253.061 477.999,249.312C474.582,243.52 472.077,235.629 469.389,229.095C467.558,224.647 465.631,220.822 463.307,218.648C461.662,217.11 459.817,216.371 457.681,216.727C450.145,217.983 444.476,223.738 439.267,230.172C434.172,236.466 429.516,243.405 423.858,247.177C422.595,248.019 421.517,248.34 420.555,248.252C419.441,248.149 418.502,247.5 417.627,246.578C416.68,245.58 415.817,244.265 414.934,242.889C413.624,240.848 412.273,238.68 410.599,237.15C408.839,235.543 406.731,234.618 403.97,235.171C393.968,237.171 386.104,246.526 379.056,254.114C374.492,259.027 370.297,263.201 366.019,263.914C359.547,264.992 356.087,262.667 352.529,260.192C350.046,258.465 347.516,256.669 343.986,255.786C327.963,251.78 315.108,256.555 303.418,264.431C301.318,265.847 299.255,267.363 297.217,268.945Z" style="fill:rgb(255,221,131);"/>
        </g>
    </g>
    <g transform="matrix(1,0,0,1,167.593,67.2542)">
        <g id="level3">
            <path d="M297.217,372.207L297.217,270.213C299.436,268.472 301.684,266.806 303.977,265.261C315.438,257.538 328.034,252.829 343.743,256.756C348.013,257.824 350.757,260.297 353.806,262.263C356.989,264.316 360.483,265.85 366.184,264.9C370.629,264.159 375.046,259.9 379.789,254.794C386.7,247.354 394.359,238.113 404.166,236.151C406.567,235.671 408.395,236.491 409.924,237.888C411.539,239.363 412.83,241.461 414.093,243.429C415.011,244.861 415.915,246.228 416.901,247.266C417.959,248.381 419.117,249.124 420.463,249.248C421.61,249.353 422.908,249.013 424.413,248.009C430.145,244.188 434.883,237.177 440.045,230.801C445.092,224.566 450.543,218.931 457.845,217.714C460.14,217.331 462.018,218.478 463.687,220.528C465.46,222.706 466.986,225.885 468.464,229.476C471.17,236.052 473.699,243.991 477.138,249.82C479.498,253.819 482.298,256.828 485.829,257.837C490.594,259.198 495.33,257.107 500.175,255.215C504.793,253.412 509.519,251.799 514.509,254.016C515.668,254.531 516.644,255.453 517.626,256.366C518.69,257.357 519.761,258.339 521.017,258.898C525.17,260.743 530.134,261.278 535.001,261.97C539.744,262.644 544.397,263.464 548.062,265.908C550.129,267.286 551.818,269.224 553.413,271.288L553.413,364.61C547.097,367.19 540.8,369.762 533.777,368.592C530.06,367.972 528.087,364.717 526.184,361.313C524.148,357.671 522.197,353.851 518.705,352.354C514.163,350.407 509.469,352.49 504.902,355.311C500.539,358.007 496.294,361.367 492.384,362.084C491.291,362.285 489.75,361.958 488.076,361.421C485.443,360.577 482.501,359.188 480.382,358.241C479.281,357.75 478.392,357.376 477.865,357.24C477.479,357.141 477.205,357.178 477.065,357.248C475.444,358.058 474.232,359.478 472.984,360.832C471.841,362.072 470.668,363.259 469.018,363.722C462.669,365.502 455.336,365.126 447.945,364.499C440.458,363.863 432.913,362.966 426.25,363.706C419.611,364.444 414.194,368.084 408.934,371.772C403.808,375.366 398.838,379.01 392.95,379.851C389.209,380.385 386.528,379.874 384.53,378.65C381.509,376.799 380.059,373.357 378.816,369.624C377.738,366.389 376.827,362.932 375.306,360.011C373.736,356.995 371.524,354.543 367.876,353.42C355.111,349.493 342.011,352.209 329.423,357.088C318.059,361.493 307.114,367.658 297.217,372.207Z" style="fill:rgb(255,221,131);"/>
        </g>
    </g>
    <g transform="matrix(1,0,0,1,167.593,64.5424)">
        <g id="level2">
            <path d="M297.217,471.071L297.217,373.307C307.207,368.746 318.281,362.48 329.784,358.021C342.159,353.224 355.033,350.515 367.582,354.376C370.947,355.412 372.971,357.691 374.419,360.473C375.917,363.349 376.806,366.755 377.867,369.94C379.19,373.911 380.794,377.534 384.008,379.503C386.165,380.824 389.053,381.418 393.091,380.841C399.132,379.978 404.25,376.278 409.508,372.591C414.632,368.998 419.893,365.419 426.36,364.7C432.964,363.967 440.441,364.865 447.86,365.495C455.376,366.133 462.832,366.495 469.288,364.685C471.121,364.171 472.45,362.887 473.72,361.509C474.867,360.264 475.964,358.94 477.442,358.178C477.523,358.194 477.768,358.248 477.979,358.322C478.481,358.497 479.167,358.794 479.974,359.154C482.122,360.114 485.103,361.518 487.771,362.373C489.631,362.97 491.35,363.291 492.565,363.068C496.576,362.332 500.952,358.927 505.428,356.162C509.699,353.523 514.062,351.452 518.312,353.273C521.613,354.688 523.387,358.358 525.312,361.801C527.37,365.483 529.593,368.908 533.613,369.578C540.686,370.757 547.052,368.283 553.413,365.69L553.413,472.672C543.651,470.811 534.079,468.435 525.164,465.692C521.318,464.508 517.743,462.265 514.164,460.099C510.502,457.883 506.835,455.749 502.893,454.835C493.604,452.681 485.918,456.196 478.421,459.95C471.119,463.607 464.004,467.5 455.669,466.218C450.328,465.396 445.854,462.04 441.404,459.039C436.792,455.929 432.201,453.199 426.798,453.74C419.679,454.452 414.969,460.385 410.482,466.187C408.302,469.006 406.17,471.784 403.807,473.855C401.516,475.863 399.01,477.201 396.011,477.201C388.391,477.201 382.053,474.232 376.341,470.079C370.56,465.876 365.417,460.465 360.25,455.636C353.95,449.749 347.603,444.734 340.081,443.684C335.035,442.979 329.455,444.044 323.001,447.84C316.28,451.794 310.147,458.857 304.472,464.178C302.037,466.46 299.623,468.762 297.217,471.071Z" style="fill:rgb(255,221,131);"/>
        </g>
    </g>
    <g transform="matrix(1,0,0,1,167.593,52.6102)">
        <g id="level1">
            <path d="M553.413,473.69L553.413,559.658L297.217,559.658L297.217,472.458C299.85,469.928 302.49,467.406 305.156,464.907C310.781,459.634 316.847,452.62 323.508,448.702C329.72,445.048 335.086,443.996 339.942,444.674C347.272,445.698 353.429,450.63 359.567,456.366C364.764,461.223 369.939,466.661 375.753,470.888C381.634,475.163 388.166,478.201 396.011,478.201C399.259,478.201 401.986,476.781 404.466,474.607C406.874,472.497 409.052,469.671 411.273,466.799C415.589,461.218 420.05,455.42 426.897,454.735C432.066,454.218 436.433,456.893 440.845,459.868C445.417,462.951 450.03,466.362 455.517,467.206C464.065,468.521 471.38,464.594 478.869,460.844C486.163,457.191 493.629,453.713 502.667,455.809C506.509,456.7 510.077,458.795 513.646,460.954C517.297,463.163 520.948,465.441 524.87,466.647C533.876,469.418 543.549,471.817 553.413,473.69Z" style="fill:rgb(255,221,131);"/>
        </g>
    </g>
</svg>
